<svg xmlns="http://www.w3.org/2000/svg" width="400" height="811" fill="none"><g clip-path="url(#a)"><path fill="#443C46" d="M.929 156.572H6.84c.515 0 .929.414.929.929v29.218a.927.927 0 0 1-.929.929H.93a.927.927 0 0 1-.929-.929v-29.218c0-.515.414-.929.929-.929Z"/><path fill="url(#b)" d="M.876 157.418h6.018c.485 0 .876.392.876.878v27.628c0 .487-.39.878-.876.878H.876a.875.875 0 0 1-.876-.878v-27.628c0-.486.39-.878.876-.878Z"/><path fill="#443C46" d="M.929 214.798H6.84c.515 0 .929.414.929.928v60.11a.926.926 0 0 1-.929.928H.93a.926.926 0 0 1-.929-.928v-60.11c0-.514.414-.928.929-.928Z"/><path fill="url(#c)" d="M.876 215.644h6.018c.485 0 .876.391.876.878v58.519c0 .486-.39.878-.876.878H.876a.875.875 0 0 1-.876-.878v-58.519c0-.487.39-.878.876-.878Z"/><path fill="#443C46" d="M.929 293.21H6.84c.515 0 .929.414.929.928v60.11a.926.926 0 0 1-.929.928H.93a.926.926 0 0 1-.929-.928v-60.11c0-.514.414-.928.929-.928Z"/><path fill="url(#d)" d="M.876 294.056h6.018c.485 0 .876.391.876.878v58.519c0 .486-.39.878-.876.878H.876a.875.875 0 0 1-.876-.878v-58.519c0-.487.39-.878.876-.878Z"/><path fill="#443C46" d="M399.072 257.228h-5.913a.927.927 0 0 0-.929.928v95.146c0 .515.415.929.929.929h5.913a.926.926 0 0 0 .928-.929v-95.146a.926.926 0 0 0-.928-.928Z"/><path fill="url(#e)" d="M399.124 258.073h-6.017a.876.876 0 0 0-.877.878v93.557c0 .486.391.878.877.878h6.017a.875.875 0 0 0 .876-.878v-93.557a.875.875 0 0 0-.876-.878Z"/><path fill="#E8E4EA" stroke="#443C46" stroke-width="2" d="M327.866 1.111H72.134c-37.561 0-68.01 30.446-68.01 68.002v672.775c0 37.556 30.449 68.001 68.01 68.001h255.732c37.561 0 68.011-30.445 68.011-68.001V69.113c0-37.556-30.45-68.002-68.011-68.002Z"/><g filter="url(#f)"><path fill="#49454B" d="M326.287 3.313H73.713c-37.05 0-67.084 30.03-67.084 67.074v670.227c0 37.044 30.034 67.074 67.084 67.074h252.574c37.049 0 67.083-30.03 67.083-67.074V70.387c0-37.044-30.034-67.075-67.083-67.075Z"/></g><path fill="#7B6E81" d="M326.287 3.313H73.713c-37.05 0-67.084 30.03-67.084 67.074v670.227c0 37.044 30.034 67.074 67.084 67.074h252.574c37.049 0 67.083-30.03 67.083-67.074V70.387c0-37.044-30.034-67.075-67.083-67.075Z"/><g filter="url(#g)"><path fill="#000" d="M326.713 5.87H73.286c-34.938 0-63.26 28.319-63.26 63.252v672.757c0 34.933 28.322 63.252 63.26 63.252h253.427c34.938 0 63.261-28.319 63.261-63.252V69.122c0-34.933-28.323-63.252-63.261-63.252Z"/></g><path fill="#000" d="M326.713 5.87H73.286c-34.938 0-63.26 28.319-63.26 63.252v672.757c0 34.933 28.322 63.252 63.26 63.252h253.427c34.938 0 63.261-28.319 63.261-63.252V69.122c0-34.933-28.323-63.252-63.261-63.252Z"/><path fill="#F3F3F3" d="M330.758 18.204H69.242c-26.641 0-48.238 21.594-48.238 48.231v678.13c0 26.637 21.597 48.231 48.237 48.231h261.517c26.641 0 48.238-21.594 48.238-48.231V66.435c0-26.637-21.597-48.23-48.238-48.23Z"/><path fill="url(#h)" d="M313.721 1.111h-5.287V5.87h5.287V1.111Z"/><path fill="url(#i)" d="M395.877 91.356v-5.287h-5.903v5.287h5.903Z"/><path fill="url(#j)" d="M4.123 91.356v-5.287h5.903v5.287H4.123Z"/><path fill="url(#k)" d="M86.279 809.89h5.287v-4.759H86.28v4.759Z"/><path fill="url(#l)" d="M4.123 719.645v5.287h5.903v-5.287H4.123Z"/><path fill="url(#m)" d="M395.877 719.645v5.287h-5.903v-5.287h5.903Z"/><path fill="url(#n)" d="M156.894 5.87c4.415 0 4.3.909 5.214 1.94.667.752 1.526.992 3.217.992h69.351c1.69 0 2.547-.24 3.214-.992.914-1.031.802-1.94 5.217-1.94h-86.213Z"/><path fill="#000" d="M240.1 28.148h-80.201c-9.393 0-17.007 7.613-17.007 17.005s7.614 17.005 17.007 17.005H240.1c9.393 0 17.008-7.613 17.008-17.005s-7.615-17.005-17.008-17.005Z"/><path fill="#0A0A0A" d="M240.845 51.907a6.754 6.754 0 1 0-6.754-6.754 6.754 6.754 0 0 0 6.754 6.754Z"/><path fill="#0A0D13" d="M240.845 49.319a4.166 4.166 0 1 0 0-8.332 4.166 4.166 0 0 0 0 8.332Z"/><path fill="#091427" d="M240.845 48.327a3.175 3.175 0 1 0 0-6.35 3.175 3.175 0 0 0 0 6.35Z"/><g filter="url(#o)"><path fill="#235A91" fill-opacity=".556" fill-rule="evenodd" d="M238.66 43.03c-.376.039-.911.613-.951 1.742-.039 1.13.456 1.744.733 1.744.278 0 1.427-1.645.218-3.487Z" clip-rule="evenodd"/></g><g filter="url(#p)"><path fill="#235A91" fill-opacity=".556" fill-rule="evenodd" d="M241.364 42.634c-.594.183-.708 1.142-.686 1.69.023.548.8 1.986 1.736 1.667.936-.32 1.096-1.507.708-2.306-.388-.8-1.096-1.37-1.758-1.05Z" clip-rule="evenodd"/></g><path fill="#525252" d="M312.946 41.542c-1.011 1.59-2.021 3.246-2.896 4.885v1.19h3.606V49h1.388v-1.382h.913v-1.191h-.913v-4.885h-2.098Zm-1.557 4.885v-.017a50.295 50.295 0 0 1 2.218-3.753h.049v3.77h-2.267Zm11.479-2.497c-.06-1.388-1.12-2.53-2.961-2.53-2.022 0-3.169 1.322-3.169 3.328v.994c0 2.032 1.011 3.42 3.18 3.42 1.912 0 2.961-1.235 2.961-2.672v-1.486h-2.939v1.098h1.535v.476c0 .76-.585 1.35-1.53 1.35-1.202 0-1.721-.875-1.721-2.192v-.978c0-1.333.606-2.098 1.677-2.098.885 0 1.437.52 1.53 1.29h1.437ZM288.854 45.394h2.569v3.813h-2.569zM293.135 43.487h2.569v5.72h-2.569zM297.418 41.58h2.569v7.627h-2.569z"/><path fill="#525252" d="M301.701 39.674h2.569v9.533h-2.569z" opacity=".3"/><rect width="19.539" height="8.787" x="330.321" y="40.047" stroke="#525252" stroke-width=".746" rx="1.865"/><rect width="9.737" height="6.6" x="331.571" y="41.141" fill="#525252" rx=".746"/><rect width="1.623" height="3.667" x="351.045" y="42.607" fill="#525252" rx=".811"/><path fill="#525252" d="M46.873 44.372c0-1.847.616-2.8 1.569-2.8.958 0 1.568.959 1.568 2.8v.584c0 1.847-.61 2.812-1.569 2.812-.952 0-1.568-.958-1.568-2.812v-.584Zm-1.707.597c0 2.514 1.149 4.196 3.263 4.196 2.184 0 3.295-1.784 3.295-4.196v-.604c0-2.532-1.143-4.196-3.263-4.196-2.108 0-3.295 1.676-3.295 4.197v.603Zm10.932 2.958c-.94 0-1.65-.571-1.65-1.422 0-.85.71-1.435 1.65-1.435.933 0 1.65.584 1.65 1.435 0 .85-.717 1.422-1.65 1.422Zm0-4.025c-.787 0-1.371-.514-1.371-1.25 0-.737.584-1.232 1.37-1.232.788 0 1.372.495 1.372 1.231 0 .737-.584 1.251-1.371 1.251Zm-.02 5.263c2.032 0 3.372-1.047 3.372-2.552 0-1.365-1.029-2-1.816-2.159v-.05c.718-.223 1.473-.813 1.473-1.943 0-1.32-1.2-2.292-3.01-2.292-1.809 0-3.008.972-3.008 2.292 0 1.117.73 1.714 1.466 1.943v.05c-.78.16-1.816.788-1.816 2.165 0 1.505 1.315 2.546 3.34 2.546Zm4.553-2.19c0 .54.444.984.984.984s.984-.445.984-.984a.989.989 0 0 0-.984-.984.989.989 0 0 0-.984.984Zm0-4.387c0 .54.444.984.984.984s.984-.444.984-.984a.985.985 0 0 0-1.968 0Zm5.491 2.61h.933c1.01 0 1.581.545 1.588 1.294.006.762-.578 1.334-1.575 1.334-.946 0-1.498-.54-1.568-1.239h-1.58c.031 1.39 1.021 2.584 3.104 2.584 1.84 0 3.352-1.028 3.333-2.596-.02-1.39-1.048-2.032-1.848-2.089v-.063c.66-.096 1.587-.775 1.568-2-.025-1.314-1.263-2.254-2.983-2.254-1.924 0-2.972 1.137-3.01 2.52h1.6c.038-.565.464-1.193 1.352-1.193.813 0 1.353.489 1.353 1.155.006.718-.553 1.226-1.378 1.226h-.889v1.32Zm8.533-4.864c-1.175 1.848-2.35 3.771-3.365 5.676v1.384h4.19V49h1.613v-1.606h1.06V46.01h-1.06v-5.676h-2.438Zm-1.81 5.676v-.02c.775-1.472 1.69-2.983 2.578-4.36h.057v4.38h-2.635Z"/></g><defs><linearGradient id="b" x1="6.894" x2="6.894" y1="157.418" y2="186.802" gradientUnits="userSpaceOnUse"><stop stop-color="#D9D7DE"/><stop offset=".08" stop-color="#43384A"/><stop offset=".14" stop-color="#7B6E81"/><stop offset=".86" stop-color="#7B6E81"/><stop offset=".928" stop-color="#5F5365"/><stop offset="1" stop-color="#B0A8B6"/></linearGradient><linearGradient id="c" x1="6.894" x2="6.894" y1="215.644" y2="275.919" gradientUnits="userSpaceOnUse"><stop stop-color="#D9D7DE"/><stop offset=".08" stop-color="#43384A"/><stop offset=".14" stop-color="#7B6E81"/><stop offset=".86" stop-color="#7B6E81"/><stop offset=".928" stop-color="#5F5365"/><stop offset="1" stop-color="#B0A8B6"/></linearGradient><linearGradient id="d" x1="6.894" x2="6.894" y1="294.056" y2="354.331" gradientUnits="userSpaceOnUse"><stop stop-color="#D9D7DE"/><stop offset=".08" stop-color="#43384A"/><stop offset=".14" stop-color="#7B6E81"/><stop offset=".86" stop-color="#7B6E81"/><stop offset=".928" stop-color="#5F5365"/><stop offset="1" stop-color="#B0A8B6"/></linearGradient><linearGradient id="e" x1="399.124" x2="399.124" y1="258.073" y2="353.386" gradientUnits="userSpaceOnUse"><stop stop-color="#D9D7DE"/><stop offset=".08" stop-color="#43384A"/><stop offset=".14" stop-color="#7B6E81"/><stop offset=".86" stop-color="#7B6E81"/><stop offset=".928" stop-color="#5F5365"/><stop offset="1" stop-color="#B0A8B6"/></linearGradient><linearGradient id="h" x1="308.434" x2="308.434" y1="1.111" y2="5.87" gradientUnits="userSpaceOnUse"><stop stop-color="#8E7F93"/><stop offset="1" stop-color="#544B58"/></linearGradient><linearGradient id="i" x1="395.877" x2="389.974" y1="86.069" y2="86.069" gradientUnits="userSpaceOnUse"><stop stop-color="#8E7F93"/><stop offset="1" stop-color="#544B58"/></linearGradient><linearGradient id="j" x1="4.123" x2="10.026" y1="86.069" y2="86.069" gradientUnits="userSpaceOnUse"><stop stop-color="#8E7F93"/><stop offset="1" stop-color="#544B58"/></linearGradient><linearGradient id="k" x1="91.566" x2="91.566" y1="809.89" y2="805.131" gradientUnits="userSpaceOnUse"><stop stop-color="#8E7F93"/><stop offset="1" stop-color="#544B58"/></linearGradient><linearGradient id="l" x1="4.123" x2="10.026" y1="724.932" y2="724.932" gradientUnits="userSpaceOnUse"><stop stop-color="#8E7F93"/><stop offset="1" stop-color="#544B58"/></linearGradient><linearGradient id="m" x1="395.877" x2="389.974" y1="724.932" y2="724.932" gradientUnits="userSpaceOnUse"><stop stop-color="#8E7F93"/><stop offset="1" stop-color="#544B58"/></linearGradient><linearGradient id="n" x1="165.386" x2="165.386" y1="5.87" y2="8.802" gradientUnits="userSpaceOnUse"><stop/><stop offset="1" stop-color="#212121"/></linearGradient><linearGradient id="q" x1="201.539" x2="351.958" y1="157.229" y2="157.229" gradientUnits="userSpaceOnUse"><stop offset=".775" stop-color="#54B676"/></linearGradient><filter id="f" width="389.421" height="807.056" x="5.289" y="1.972" color-interpolation-filters="sRGB" filterUnits="userSpaceOnUse"><feFlood flood-opacity="0" result="BackgroundImageFix"/><feBlend in="SourceGraphic" in2="BackgroundImageFix" result="shape"/><feGaussianBlur result="effect1_foregroundBlur_1370_1206" stdDeviation=".67"/></filter><filter id="g" width="382.602" height="801.914" x="8.699" y="4.543" color-interpolation-filters="sRGB" filterUnits="userSpaceOnUse"><feFlood flood-opacity="0" result="BackgroundImageFix"/><feBlend in="SourceGraphic" in2="BackgroundImageFix" result="shape"/><feGaussianBlur result="effect1_foregroundBlur_1370_1206" stdDeviation=".663"/></filter><filter id="o" width="1.926" height="3.918" x="237.491" y="42.814" color-interpolation-filters="sRGB" filterUnits="userSpaceOnUse"><feFlood flood-opacity="0" result="BackgroundImageFix"/><feBlend in="SourceGraphic" in2="BackgroundImageFix" result="shape"/><feGaussianBlur result="effect1_foregroundBlur_1370_1206" stdDeviation=".108"/></filter><filter id="p" width="3.075" height="3.924" x="240.46" y="42.328" color-interpolation-filters="sRGB" filterUnits="userSpaceOnUse"><feFlood flood-opacity="0" result="BackgroundImageFix"/><feBlend in="SourceGraphic" in2="BackgroundImageFix" result="shape"/><feGaussianBlur result="effect1_foregroundBlur_1370_1206" stdDeviation=".108"/></filter><clipPath id="a"><path fill="#fff" d="M0 0h400v811H0z"/></clipPath></defs></svg>