<svg width="400" height="811" viewBox="0 0 400 811" fill="none" xmlns="http://www.w3.org/2000/svg">
<path d="M0.928631 156.572H6.84126C7.35572 156.572 7.76989 156.986 7.76989 157.501V186.719C7.76989 187.233 7.35572 187.648 6.84126 187.648H0.928631C0.414169 187.648 0 187.233 0 186.719V157.501C0 156.986 0.414169 156.572 0.928631 156.572Z" fill="#443C46"/>
<path d="M0.876061 157.418H6.89383C7.37917 157.418 7.76989 157.81 7.76989 158.296V185.924C7.76989 186.411 7.37917 186.802 6.89383 186.802H0.876061C0.390723 186.802 0 186.411 0 185.924V158.296C0 157.81 0.390723 157.418 0.876061 157.418Z" fill="url(#paint0_linear_1987_326)"/>
<path d="M0.92863 214.798H6.84126C7.35572 214.798 7.76989 215.212 7.76989 215.726V275.836C7.76989 276.35 7.35572 276.764 6.84126 276.764H0.92863C0.414169 276.764 0 276.35 0 275.836V215.726C0 215.212 0.414169 214.798 0.92863 214.798Z" fill="#443C46"/>
<path d="M0.87606 215.644H6.89383C7.37917 215.644 7.76989 216.035 7.76989 216.522V275.041C7.76989 275.527 7.37917 275.919 6.89383 275.919H0.87606C0.390723 275.919 0 275.527 0 275.041V216.522C0 216.035 0.390723 215.644 0.87606 215.644Z" fill="url(#paint1_linear_1987_326)"/>
<path d="M0.92863 293.21H6.84126C7.35572 293.21 7.76989 293.624 7.76989 294.138V354.248C7.76989 354.762 7.35572 355.176 6.84126 355.176H0.92863C0.414169 355.176 0 354.762 0 354.248V294.138C0 293.624 0.414169 293.21 0.92863 293.21Z" fill="#443C46"/>
<path d="M0.87606 294.056H6.89383C7.37917 294.056 7.76989 294.447 7.76989 294.934V353.453C7.76989 353.939 7.37917 354.331 6.89383 354.331H0.87606C0.390723 354.331 0 353.939 0 353.453V294.934C0 294.447 0.390723 294.056 0.87606 294.056Z" fill="url(#paint2_linear_1987_326)"/>
<path d="M399.072 257.228H393.159C392.645 257.228 392.23 257.642 392.23 258.156V353.302C392.23 353.817 392.645 354.231 393.159 354.231H399.072C399.586 354.231 400 353.817 400 353.302V258.156C400 257.642 399.586 257.228 399.072 257.228Z" fill="#443C46"/>
<path d="M399.124 258.073H393.107C392.621 258.073 392.23 258.465 392.23 258.951V352.508C392.23 352.994 392.621 353.386 393.107 353.386H399.124C399.61 353.386 400 352.994 400 352.508V258.951C400 258.465 399.61 258.073 399.124 258.073Z" fill="url(#paint3_linear_1987_326)"/>
<path d="M327.866 1.11133H72.134C34.5726 1.11133 4.12305 31.5567 4.12305 69.1129V741.888C4.12305 779.444 34.5726 809.889 72.134 809.889H327.866C365.427 809.889 395.877 779.444 395.877 741.888V69.1129C395.877 31.5567 365.427 1.11133 327.866 1.11133Z" fill="#E8E4EA" stroke="#443C46" stroke-width="2"/>
<g filter="url(#filter0_f_1987_326)">
<path d="M326.287 3.3125H73.7127C36.6633 3.3125 6.62891 33.3428 6.62891 70.3871V740.614C6.62891 777.658 36.6633 807.688 73.7127 807.688H326.287C363.336 807.688 393.37 777.658 393.37 740.614V70.3871C393.37 33.3428 363.336 3.3125 326.287 3.3125Z" fill="#49454B"/>
</g>
<path d="M326.287 3.3125H73.7127C36.6633 3.3125 6.62891 33.3428 6.62891 70.3871V740.614C6.62891 777.658 36.6633 807.688 73.7127 807.688H326.287C363.336 807.688 393.37 777.658 393.37 740.614V70.3871C393.37 33.3428 363.336 3.3125 326.287 3.3125Z" fill="#7B6E81"/>
<g filter="url(#filter1_f_1987_326)">
<path d="M326.713 5.87012H73.2859C38.3481 5.87012 10.0254 34.1889 10.0254 69.122V741.879C10.0254 776.812 38.3481 805.131 73.2859 805.131H326.713C361.651 805.131 389.974 776.812 389.974 741.879V69.122C389.974 34.1889 361.651 5.87012 326.713 5.87012Z" fill="black"/>
</g>
<path d="M326.713 5.87012H73.2859C38.3481 5.87012 10.0254 34.1889 10.0254 69.122V741.879C10.0254 776.812 38.3481 805.131 73.2859 805.131H326.713C361.651 805.131 389.974 776.812 389.974 741.879V69.122C389.974 34.1889 361.651 5.87012 326.713 5.87012Z" fill="black"/>
<path d="M330.758 18.2041H69.2415C42.6006 18.2041 21.0039 39.7979 21.0039 66.4351V744.565C21.0039 771.202 42.6006 792.796 69.2415 792.796H330.758C357.399 792.796 378.996 771.202 378.996 744.565V66.4351C378.996 39.7979 357.399 18.2041 330.758 18.2041Z" fill="#F3F3F3"/>
<path d="M313.721 1.11133H308.434V5.86999H313.721V1.11133Z" fill="url(#paint4_linear_1987_326)"/>
<path d="M395.877 91.356V86.0693H389.974V91.356H395.877Z" fill="url(#paint5_linear_1987_326)"/>
<path d="M4.12305 91.356V86.0693H10.0258V91.356H4.12305Z" fill="url(#paint6_linear_1987_326)"/>
<path d="M86.279 809.89H91.5664V805.131H86.279V809.89Z" fill="url(#paint7_linear_1987_326)"/>
<path d="M4.12305 719.645V724.932H10.0258V719.645H4.12305Z" fill="url(#paint8_linear_1987_326)"/>
<path d="M395.877 719.645V724.932H389.974V719.645H395.877Z" fill="url(#paint9_linear_1987_326)"/>
<path d="M156.893 5.87012C161.308 5.87012 161.193 6.77884 162.107 7.80996C162.774 8.56201 163.633 8.80157 165.324 8.80157H234.675C236.365 8.80157 237.222 8.56201 237.889 7.80996C238.803 6.77884 238.691 5.87012 243.106 5.87012H156.893Z" fill="url(#paint10_linear_1987_326)"/>
<path d="M240.101 28.1475H159.9C150.507 28.1475 142.893 35.7611 142.893 45.1529C142.893 54.5448 150.507 62.1584 159.9 62.1584H240.101C249.494 62.1584 257.109 54.5448 257.109 45.1529C257.109 35.7611 249.494 28.1475 240.101 28.1475Z" fill="black"/>
<path d="M240.844 51.9065C244.575 51.9065 247.599 48.8828 247.599 45.1529C247.599 41.4231 244.575 38.3994 240.844 38.3994C237.114 38.3994 234.09 41.4231 234.09 45.1529C234.09 48.8828 237.114 51.9065 240.844 51.9065Z" fill="#0A0A0A"/>
<path d="M240.844 49.3187C243.145 49.3187 245.01 47.4536 245.01 45.153C245.01 42.8523 243.145 40.9873 240.844 40.9873C238.543 40.9873 236.678 42.8523 236.678 45.153C236.678 47.4536 238.543 49.3187 240.844 49.3187Z" fill="#0A0D13"/>
<path d="M240.844 48.3273C242.597 48.3273 244.019 46.9063 244.019 45.1534C244.019 43.4005 242.597 41.9795 240.844 41.9795C239.091 41.9795 237.67 43.4005 237.67 45.1534C237.67 46.9063 239.091 48.3273 240.844 48.3273Z" fill="#091427"/>
<g filter="url(#filter2_f_1987_326)">
<path fill-rule="evenodd" clip-rule="evenodd" d="M238.658 43.0293C238.282 43.0689 237.747 43.6434 237.707 44.7725C237.668 45.9016 238.163 46.5157 238.44 46.5157C238.718 46.5157 239.867 44.8715 238.658 43.0293Z" fill="#235A91" fill-opacity="0.556075"/>
</g>
<g filter="url(#filter3_f_1987_326)">
<path fill-rule="evenodd" clip-rule="evenodd" d="M241.362 42.6343C240.768 42.817 240.654 43.776 240.677 44.324C240.699 44.872 241.476 46.3105 242.412 45.9909C243.348 45.6712 243.508 44.4838 243.12 43.6846C242.732 42.8855 242.024 42.3146 241.362 42.6343Z" fill="#235A91" fill-opacity="0.556075"/>
</g>
<rect x="275" y="46.1709" width="3.08698" height="4.58141" rx="1" fill="#373737"/>
<rect x="280.145" y="43.8809" width="3.08698" height="6.87212" rx="1" fill="#373737"/>
<rect x="285.289" y="41.5898" width="3.08698" height="9.16282" rx="1" fill="#373737"/>
<rect opacity="0.3" x="290.436" y="39.2988" width="3.08698" height="11.4535" rx="1" fill="#373737"/>
<path d="M305.233 47.2337L303.833 45.8003C304.522 45.1114 305.311 44.5837 306.2 44.217C307.089 43.8503 308.022 43.667 309 43.667C309.978 43.667 310.914 43.8532 311.809 44.2257C312.703 44.5981 313.489 45.1341 314.167 45.8337L312.767 47.2337C312.267 46.7337 311.692 46.3474 311.041 46.075C310.391 45.8025 309.711 45.6665 309 45.667C308.289 45.667 307.608 45.8032 306.958 46.0757C306.308 46.3481 305.733 46.7341 305.233 47.2337ZM302.4 44.4003L301 43.0003C302.056 41.9225 303.275 41.0974 304.659 40.525C306.042 39.9525 307.489 39.6665 309 39.667C310.511 39.667 311.958 39.9532 313.342 40.5257C314.726 41.0981 315.945 41.923 317 43.0003L315.6 44.4003C314.722 43.5225 313.714 42.8474 312.575 42.375C311.436 41.9025 310.244 41.6665 309 41.667C307.756 41.667 306.564 41.9032 305.425 42.3757C304.286 42.8481 303.277 43.523 302.4 44.4003ZM309 51.0003L306.65 48.6337C306.961 48.3225 307.32 48.0837 307.725 47.917C308.131 47.7503 308.556 47.667 309 47.667C309.444 47.667 309.87 47.7503 310.275 47.917C310.681 48.0837 311.039 48.3225 311.35 48.6337L309 51.0003Z" fill="black"/>
<rect x="325.744" y="39.6718" width="23.6249" height="10.7076" rx="1.86491" stroke="#373737" stroke-width="0.745966"/>
<rect x="327.32" y="41.0605" width="11.698" height="7.92937" rx="0.745966" fill="#373737"/>
<rect x="350.717" y="42.8232" width="1.94967" height="4.40521" rx="0.974834" fill="#373737"/>
<path d="M69.1226 44.1354C69.1226 41.878 69.888 40.7144 71.0716 40.7144C72.2631 40.7144 73.0206 41.8858 73.0206 44.1354V44.8491C73.0206 47.1065 72.2631 48.2856 71.0716 48.2856C69.888 48.2856 69.1226 47.1142 69.1226 44.8491V44.1354ZM67 44.8646C67 47.9365 68.4282 49.9922 71.0558 49.9922C73.7702 49.9922 75.1511 47.8124 75.1511 44.8646V44.1276C75.1511 41.0324 73.7308 39 71.0953 39C68.4756 39 67 41.048 67 44.1276V44.8646Z" fill="#373737"/>
<path d="M80.5878 48.4795C79.4199 48.4795 78.5362 47.7814 78.5362 46.7419C78.5362 45.7024 79.4199 44.9887 80.5878 44.9887C81.7477 44.9887 82.6393 45.7024 82.6393 46.7419C82.6393 47.7814 81.7477 48.4795 80.5878 48.4795ZM80.5878 43.5614C79.6093 43.5614 78.8834 42.933 78.8834 42.0331C78.8834 41.1333 79.6093 40.5282 80.5878 40.5282C81.5662 40.5282 82.2921 41.1333 82.2921 42.0331C82.2921 42.933 81.5662 43.5614 80.5878 43.5614ZM80.5641 49.9922C83.0891 49.9922 84.754 48.7123 84.754 46.8738C84.754 45.2059 83.4757 44.4302 82.4973 44.2362V44.1742C83.389 43.9027 84.3279 43.1812 84.3279 41.8004C84.3279 40.1869 82.8366 39 80.5878 39C78.3389 39 76.8476 40.1869 76.8476 41.8004C76.8476 43.1657 77.755 43.8949 78.6703 44.1742V44.2362C77.6998 44.4302 76.4136 45.1982 76.4136 46.8815C76.4136 48.72 78.047 49.9922 80.5641 49.9922Z" fill="#373737"/>
<path d="M86.2217 47.3159C86.2217 47.9753 86.7741 48.5183 87.4448 48.5183C88.1155 48.5183 88.6678 47.9753 88.6678 47.3159C88.6678 46.6566 88.1155 46.1135 87.4448 46.1135C86.7741 46.1135 86.2217 46.6566 86.2217 47.3159ZM86.2217 41.9556C86.2217 42.615 86.7741 43.158 87.4448 43.158C88.1155 43.158 88.6678 42.615 88.6678 41.9556C88.6678 41.2884 88.1155 40.7532 87.4448 40.7532C86.7741 40.7532 86.2217 41.2884 86.2217 41.9556Z" fill="#373737"/>
<path d="M93.0471 45.1439H94.2071C95.4617 45.1439 96.1719 45.811 96.1798 46.7264C96.1876 47.6573 95.4617 48.3554 94.2229 48.3554C93.0471 48.3554 92.3607 47.6961 92.2739 46.8427H90.3091C90.3485 48.5416 91.5795 50 94.1676 50C96.4559 50 98.3339 48.7433 98.3102 46.8272C98.2866 45.1284 97.0083 44.3449 96.014 44.275V44.1975C96.8347 44.0811 97.9867 43.2511 97.963 41.7539C97.9315 40.1481 96.3928 39 94.2544 39C91.8635 39 90.5616 40.3886 90.5142 42.0797H92.5027C92.55 41.3893 93.0787 40.6213 94.1834 40.6213C95.1934 40.6213 95.8641 41.2186 95.8641 42.0331C95.872 42.9097 95.1776 43.5303 94.1518 43.5303H93.0471V45.1439Z" fill="#373737"/>
<path d="M103.652 39.2017C102.192 41.4591 100.733 43.8096 99.4702 46.1368V47.8279H104.678V49.7906H106.682V47.8279H108V46.1368H106.682V39.2017H103.652ZM101.403 46.1368V46.1135C102.366 44.3138 103.502 42.4676 104.607 40.7842H104.678V46.1368H101.403Z" fill="#373737"/>
<defs>
<filter id="filter0_f_1987_326" x="5.28878" y="1.97237" width="389.422" height="807.056" filterUnits="userSpaceOnUse" color-interpolation-filters="sRGB">
<feFlood flood-opacity="0" result="BackgroundImageFix"/>
<feBlend mode="normal" in="SourceGraphic" in2="BackgroundImageFix" result="shape"/>
<feGaussianBlur stdDeviation="0.670065" result="effect1_foregroundBlur_1987_326"/>
</filter>
<filter id="filter1_f_1987_326" x="8.69866" y="4.54338" width="382.603" height="801.914" filterUnits="userSpaceOnUse" color-interpolation-filters="sRGB">
<feFlood flood-opacity="0" result="BackgroundImageFix"/>
<feBlend mode="normal" in="SourceGraphic" in2="BackgroundImageFix" result="shape"/>
<feGaussianBlur stdDeviation="0.663367" result="effect1_foregroundBlur_1987_326"/>
</filter>
<filter id="filter2_f_1987_326" x="237.489" y="42.8136" width="1.92741" height="3.91764" filterUnits="userSpaceOnUse" color-interpolation-filters="sRGB">
<feFlood flood-opacity="0" result="BackgroundImageFix"/>
<feBlend mode="normal" in="SourceGraphic" in2="BackgroundImageFix" result="shape"/>
<feGaussianBlur stdDeviation="0.107828" result="effect1_foregroundBlur_1987_326"/>
</filter>
<filter id="filter3_f_1987_326" x="240.458" y="42.3283" width="3.07389" height="3.92448" filterUnits="userSpaceOnUse" color-interpolation-filters="sRGB">
<feFlood flood-opacity="0" result="BackgroundImageFix"/>
<feBlend mode="normal" in="SourceGraphic" in2="BackgroundImageFix" result="shape"/>
<feGaussianBlur stdDeviation="0.107828" result="effect1_foregroundBlur_1987_326"/>
</filter>
<linearGradient id="paint0_linear_1987_326" x1="6.89383" y1="157.418" x2="6.89383" y2="186.802" gradientUnits="userSpaceOnUse">
<stop stop-color="#D9D7DE"/>
<stop offset="0.08" stop-color="#43384A"/>
<stop offset="0.14" stop-color="#7B6E81"/>
<stop offset="0.86" stop-color="#7B6E81"/>
<stop offset="0.928265" stop-color="#5F5365"/>
<stop offset="1" stop-color="#B0A8B6"/>
</linearGradient>
<linearGradient id="paint1_linear_1987_326" x1="6.89383" y1="215.644" x2="6.89383" y2="275.919" gradientUnits="userSpaceOnUse">
<stop stop-color="#D9D7DE"/>
<stop offset="0.08" stop-color="#43384A"/>
<stop offset="0.14" stop-color="#7B6E81"/>
<stop offset="0.86" stop-color="#7B6E81"/>
<stop offset="0.928265" stop-color="#5F5365"/>
<stop offset="1" stop-color="#B0A8B6"/>
</linearGradient>
<linearGradient id="paint2_linear_1987_326" x1="6.89383" y1="294.056" x2="6.89383" y2="354.331" gradientUnits="userSpaceOnUse">
<stop stop-color="#D9D7DE"/>
<stop offset="0.08" stop-color="#43384A"/>
<stop offset="0.14" stop-color="#7B6E81"/>
<stop offset="0.86" stop-color="#7B6E81"/>
<stop offset="0.928265" stop-color="#5F5365"/>
<stop offset="1" stop-color="#B0A8B6"/>
</linearGradient>
<linearGradient id="paint3_linear_1987_326" x1="399.124" y1="258.073" x2="399.124" y2="353.386" gradientUnits="userSpaceOnUse">
<stop stop-color="#D9D7DE"/>
<stop offset="0.08" stop-color="#43384A"/>
<stop offset="0.14" stop-color="#7B6E81"/>
<stop offset="0.86" stop-color="#7B6E81"/>
<stop offset="0.928265" stop-color="#5F5365"/>
<stop offset="1" stop-color="#B0A8B6"/>
</linearGradient>
<linearGradient id="paint4_linear_1987_326" x1="308.434" y1="1.11133" x2="308.434" y2="5.86999" gradientUnits="userSpaceOnUse">
<stop stop-color="#8E7F93"/>
<stop offset="1" stop-color="#544B58"/>
</linearGradient>
<linearGradient id="paint5_linear_1987_326" x1="395.877" y1="86.0693" x2="389.974" y2="86.0693" gradientUnits="userSpaceOnUse">
<stop stop-color="#8E7F93"/>
<stop offset="1" stop-color="#544B58"/>
</linearGradient>
<linearGradient id="paint6_linear_1987_326" x1="4.12301" y1="86.0693" x2="10.0257" y2="86.0693" gradientUnits="userSpaceOnUse">
<stop stop-color="#8E7F93"/>
<stop offset="1" stop-color="#544B58"/>
</linearGradient>
<linearGradient id="paint7_linear_1987_326" x1="91.5664" y1="809.89" x2="91.5664" y2="805.131" gradientUnits="userSpaceOnUse">
<stop stop-color="#8E7F93"/>
<stop offset="1" stop-color="#544B58"/>
</linearGradient>
<linearGradient id="paint8_linear_1987_326" x1="4.12302" y1="724.932" x2="10.0258" y2="724.932" gradientUnits="userSpaceOnUse">
<stop stop-color="#8E7F93"/>
<stop offset="1" stop-color="#544B58"/>
</linearGradient>
<linearGradient id="paint9_linear_1987_326" x1="395.877" y1="724.932" x2="389.974" y2="724.932" gradientUnits="userSpaceOnUse">
<stop stop-color="#8E7F93"/>
<stop offset="1" stop-color="#544B58"/>
</linearGradient>
<linearGradient id="paint10_linear_1987_326" x1="165.385" y1="5.87012" x2="165.385" y2="8.80157" gradientUnits="userSpaceOnUse">
<stop/>
<stop offset="1" stop-color="#212121"/>
</linearGradient>
</defs>
</svg>
